<svg width="635" height="542" viewBox="0 0 635 542" fill="none" xmlns="http://www.w3.org/2000/svg">
<path opacity="0.1" d="M632.088 373.693C614.745 286.132 513.135 216.15 493.317 124.905C457.297 8.81695 338.575 -9.53685 261.426 40.8803C139.185 120.767 269.591 140.591 29.915 329.598C-29.2665 376.268 -10.4086 582.279 175.773 535C275.967 509.556 306.426 505.986 351.495 501.796C465.09 491.238 661.201 520.676 632.088 373.693Z" fill="#367CFF"/>
<path d="M496.384 395.639L320.81 488.478L145.502 395.639V255.445H496.384V395.639Z" fill="white"/>
<path d="M320.81 489.902C320.578 489.902 320.35 489.845 320.145 489.735L144.842 396.897C144.614 396.776 144.423 396.596 144.289 396.375C144.156 396.154 144.085 395.901 144.084 395.643V255.445C144.084 255.067 144.234 254.705 144.501 254.438C144.767 254.171 145.129 254.021 145.506 254.021H496.384C496.761 254.021 497.123 254.171 497.39 254.438C497.657 254.705 497.806 255.067 497.806 255.445V395.639C497.806 395.897 497.734 396.15 497.601 396.371C497.468 396.591 497.277 396.772 497.049 396.892L321.475 489.732C321.271 489.842 321.042 489.9 320.81 489.902ZM146.924 394.783L320.81 486.868L494.962 394.781V256.869H146.924V394.783Z" fill="#262626"/>
<path d="M496.384 225.362L320.81 132.523L399.707 94.4495L575.28 187.289L496.384 225.362Z" fill="white"/>
<path d="M496.384 226.786C496.153 226.786 495.925 226.729 495.72 226.621L320.146 133.782C319.913 133.658 319.719 133.473 319.586 133.246C319.452 133.019 319.384 132.759 319.389 132.496C319.394 132.233 319.471 131.976 319.613 131.754C319.755 131.532 319.956 131.354 320.193 131.239L399.089 93.1657C399.289 93.0683 399.51 93.0197 399.733 93.0239C399.956 93.028 400.174 93.0848 400.371 93.1896L575.945 186.029C576.177 186.152 576.371 186.338 576.505 186.565C576.639 186.792 576.707 187.051 576.702 187.314C576.697 187.578 576.62 187.835 576.478 188.057C576.336 188.278 576.135 188.456 575.898 188.571L497.002 226.644C496.809 226.737 496.598 226.786 496.384 226.786ZM323.966 132.579L496.414 223.764L572.125 187.229L399.677 96.0454L323.966 132.579Z" fill="#262626"/>
<path d="M145.502 225.362L321.076 132.523L242.179 94.4495L66.6057 187.289L145.502 225.362Z" fill="white"/>
<path d="M145.502 226.786C145.288 226.786 145.077 226.737 144.884 226.644L65.9924 188.571C65.7554 188.456 65.5548 188.278 65.4128 188.057C65.2708 187.835 65.1931 187.578 65.1883 187.314C65.1835 187.051 65.2517 186.792 65.3854 186.565C65.5191 186.338 65.7131 186.152 65.9457 186.029L241.52 93.1896C241.716 93.0848 241.935 93.028 242.158 93.0239C242.381 93.0197 242.601 93.0683 242.802 93.1657L321.698 131.239C321.935 131.354 322.135 131.532 322.277 131.754C322.419 131.976 322.497 132.233 322.502 132.496C322.507 132.759 322.438 133.019 322.305 133.246C322.171 133.473 321.977 133.658 321.745 133.782L146.171 226.621C145.965 226.73 145.735 226.786 145.502 226.786ZM69.7608 187.231L145.472 223.767L317.92 132.581L242.209 96.0454L69.7608 187.231Z" fill="#262626"/>
<path d="M145.502 225.362L321.076 318.201L230.801 367.665L55.2276 274.826L145.502 225.362Z" fill="white"/>
<path d="M230.801 369.089C230.57 369.089 230.342 369.033 230.137 368.924L54.5632 276.084C54.3365 275.964 54.1465 275.784 54.0135 275.565C53.8804 275.345 53.8092 275.093 53.8073 274.836C53.8054 274.58 53.873 274.327 54.0029 274.105C54.1327 273.884 54.32 273.702 54.5449 273.578L144.819 224.113C145.025 224 145.256 223.94 145.491 223.938C145.727 223.936 145.959 223.994 146.166 224.104L321.74 316.944C321.967 317.064 322.157 317.244 322.29 317.463C322.423 317.683 322.494 317.935 322.496 318.191C322.498 318.448 322.43 318.701 322.3 318.922C322.17 319.144 321.983 319.326 321.758 319.45L231.484 368.915C231.275 369.029 231.04 369.089 230.801 369.089ZM58.2314 274.804L230.789 366.049L318.073 318.223L145.514 226.978L58.2314 274.804Z" fill="#262626"/>
<path d="M496.384 225.362L320.81 318.201L411.085 367.665L586.658 274.826L496.384 225.362Z" fill="white"/>
<path d="M411.087 369.089C410.848 369.089 410.614 369.029 410.404 368.915L320.13 319.45C319.905 319.326 319.718 319.144 319.588 318.922C319.458 318.701 319.391 318.448 319.392 318.191C319.394 317.935 319.465 317.683 319.599 317.463C319.732 317.244 319.922 317.064 320.148 316.944L495.722 224.104C495.93 223.994 496.162 223.936 496.397 223.938C496.632 223.94 496.863 224 497.069 224.113L587.343 273.578C587.568 273.702 587.755 273.884 587.885 274.105C588.015 274.327 588.083 274.58 588.081 274.836C588.079 275.093 588.008 275.345 587.875 275.565C587.742 275.784 587.552 275.964 587.325 276.084L411.751 368.924C411.547 369.033 411.318 369.089 411.087 369.089ZM323.818 318.223L411.101 366.049L583.659 274.804L496.375 226.978L323.818 318.223Z" fill="#262626"/>
<path d="M321.076 132.523L145.502 225.362L320.81 318.201L496.384 225.362L321.076 132.523Z" fill="#262626"/>
<path d="M322.233 318.2H319.388V488.478H322.233V318.2Z" fill="#262626"/>
<path d="M222.44 216.933C222.204 216.933 221.975 216.86 221.783 216.722C221.537 216.548 221.37 216.282 221.319 215.985C221.269 215.687 221.338 215.381 221.512 215.134C221.723 214.837 242.286 185.074 219.33 157.939C215.267 153.112 210.199 149.232 204.48 146.573C198.762 143.913 192.531 142.538 186.226 142.543H185.916C188.096 150.125 187.707 156.866 184.62 162.038C183.305 164.375 181.364 166.298 179.016 167.59C176.668 168.882 174.007 169.492 171.331 169.351C169.116 169.17 167.002 168.345 165.248 166.979C163.494 165.613 162.176 163.764 161.456 161.66C158.931 155.066 161.57 148.674 168.524 144.553C172.929 142.121 177.825 140.711 182.848 140.429C181.214 136.091 179.089 131.955 176.515 128.102C168.226 115.428 153.119 106.654 135.067 104.031C119.768 101.808 105.106 104.426 97.7096 110.698C97.4792 110.893 97.1808 110.989 96.8801 110.964C96.5793 110.939 96.3008 110.795 96.1059 110.564C95.911 110.334 95.8155 110.035 95.8406 109.734C95.8657 109.433 96.0092 109.154 96.2396 108.959C104.111 102.284 119.479 99.4628 135.394 101.782C154.091 104.5 169.772 113.639 178.419 126.859C181.223 131.052 183.503 135.572 185.21 140.319C192.012 140.156 198.764 141.522 204.968 144.317C211.173 147.113 216.672 151.267 221.061 156.472C245.174 184.972 223.583 216.146 223.362 216.458C223.257 216.605 223.119 216.724 222.958 216.807C222.798 216.89 222.62 216.933 222.44 216.933ZM183.586 142.626C178.716 142.834 173.96 144.165 169.688 146.515C163.685 150.071 161.462 155.295 163.586 160.845C164.162 162.546 165.22 164.042 166.631 165.149C168.042 166.257 169.746 166.929 171.532 167.083C173.782 167.184 176.016 166.657 177.983 165.559C179.95 164.462 181.574 162.839 182.673 160.87C185.506 156.12 185.765 149.806 183.583 142.626H183.586Z" fill="#292A2E"/>
<path d="M78.0724 129.064C76.1388 129.646 74.055 129.449 72.2644 128.515C70.4739 127.581 69.1181 125.985 68.4858 124.065C67.8535 122.146 67.9947 120.055 68.8792 118.238C69.7637 116.421 71.3217 115.021 73.2215 114.337C75.1212 113.653 77.2126 113.739 79.0504 114.575C80.8882 115.412 82.3272 116.934 83.0609 118.817C83.7946 120.7 83.7651 122.796 82.9788 124.657C82.1924 126.519 80.7112 128 78.8506 128.784C78.5965 128.892 78.3367 128.985 78.0724 129.064ZM74.2892 116.406C74.1049 116.462 73.9237 116.527 73.7465 116.602C72.4373 117.155 71.3954 118.197 70.8426 119.508C70.2899 120.818 70.2699 122.293 70.7871 123.618C71.3042 124.943 72.3176 126.013 73.6113 126.601C74.905 127.189 76.3769 127.248 77.7134 126.765C79.0499 126.283 80.1455 125.297 80.7668 124.018C81.388 122.738 81.4859 121.267 81.0395 119.916C80.5931 118.566 79.6377 117.443 78.3769 116.788C77.116 116.132 75.6493 115.995 74.2892 116.406Z" fill="#292A2E"/>
<path d="M78.0587 111.214C76.2297 111.761 74.2633 111.611 72.5377 110.795C70.8121 109.978 69.449 108.551 68.7106 106.789C68.1185 105.376 67.9581 103.819 68.2498 102.315C68.5416 100.811 69.2722 99.4273 70.3494 98.339C71.4266 97.2508 72.8019 96.5068 74.3015 96.2011C75.801 95.8955 77.3574 96.0419 78.7739 96.6219C80.1903 97.2019 81.4031 98.1894 82.259 99.4595C83.1148 100.73 83.5752 102.225 83.582 103.757C83.5887 105.289 83.1415 106.789 82.2969 108.067C81.4523 109.344 80.2482 110.343 78.837 110.935C78.5826 111.042 78.3228 111.135 78.0587 111.214ZM74.2801 98.5549C74.0936 98.6109 73.9101 98.6767 73.7305 98.752C72.3957 99.3133 71.3382 100.382 70.7903 101.724C70.2424 103.066 70.249 104.57 70.8087 105.907C71.2168 106.881 71.8983 107.717 72.7706 108.311C73.6428 108.906 74.6686 109.235 75.7238 109.259C76.7789 109.282 77.8183 108.999 78.7161 108.444C79.614 107.888 80.3318 107.084 80.7828 106.129C81.2338 105.174 81.3987 104.108 81.2575 103.061C81.1162 102.014 80.675 101.03 79.9871 100.228C79.2991 99.427 78.394 98.8424 77.3812 98.5452C76.3684 98.248 75.2912 98.2521 74.2801 98.5549Z" fill="#292A2E"/>
<path d="M75.8502 119.27C81.4379 119.27 85.9675 116.241 85.9675 112.505C85.9675 108.768 81.4379 105.739 75.8502 105.739C70.2626 105.739 65.7329 108.768 65.7329 112.505C65.7329 116.241 70.2626 119.27 75.8502 119.27Z" fill="white"/>
<path d="M80.3286 119.768C78.8781 120.197 77.373 120.414 75.8605 120.41C69.548 120.41 64.5963 116.947 64.5963 112.515C64.5963 108.083 69.5332 104.607 75.8434 104.6C78.5945 104.547 81.3013 105.3 83.6316 106.765C84.6782 107.311 85.5555 108.133 86.168 109.143C86.7805 110.153 87.1049 111.312 87.1059 112.493C87.107 113.675 86.7847 114.834 86.174 115.845C85.5632 116.856 84.6875 117.68 83.6419 118.228C82.6197 118.903 81.5031 119.422 80.3286 119.768ZM72.0659 107.421C69.0257 108.332 66.8707 110.299 66.8719 112.509C66.8719 115.559 70.9873 118.132 75.8605 118.128C78.1624 118.176 80.4287 117.552 82.3823 116.332C83.115 115.994 83.7356 115.453 84.1703 114.773C84.605 114.093 84.8357 113.302 84.835 112.494C84.8343 111.686 84.6022 110.896 84.1662 110.216C83.7303 109.537 83.1088 108.997 82.3755 108.66C80.4204 107.443 78.1531 106.823 75.8514 106.876C74.5698 106.873 73.2947 107.056 72.0659 107.421Z" fill="#292A2E"/>
<path d="M78.3318 119.064L78.0928 105.907L74.8251 105.775L74.5964 119.218L78.3318 119.064Z" fill="#292A2E"/>
<path d="M62.4276 115.367C63.0045 115.367 63.4721 114.899 63.4721 114.322C63.4721 113.744 63.0045 113.276 62.4276 113.276C61.8508 113.276 61.3831 113.744 61.3831 114.322C61.3831 114.899 61.8508 115.367 62.4276 115.367Z" fill="#292A2E"/>
<path d="M63.2434 109.772C63.8203 109.772 64.2879 109.304 64.2879 108.726C64.2879 108.149 63.8203 107.681 63.2434 107.681C62.6666 107.681 62.1989 108.149 62.1989 108.726C62.1989 109.304 62.6666 109.772 63.2434 109.772Z" fill="#292A2E"/>
<path d="M401.216 151.239C400.973 151.239 400.736 151.161 400.54 151.016C400.344 150.871 400.2 150.667 400.129 150.434C396.355 136.324 395.348 121.616 397.164 107.122C400.105 85.9343 411.776 58.1268 450.674 45.9506C456.147 44.1888 461.761 42.9003 467.455 42.0991C469.288 30.6383 476.26 18.2057 491.853 9.628C528.902 -10.7535 553.928 7.53312 554.176 7.71994C554.418 7.90121 554.577 8.17107 554.62 8.47015C554.663 8.76923 554.585 9.07304 554.404 9.31473C554.223 9.55643 553.953 9.71621 553.655 9.75894C553.356 9.80167 553.052 9.72383 552.811 9.54256C552.574 9.36485 528.658 -8.01954 492.95 11.626C478.38 19.6422 471.71 31.1475 469.813 41.828C486.97 40.1364 495.186 45.8663 498.874 50.1939C501.155 52.7963 502.621 56.0133 503.09 59.4441C503.558 62.8749 503.007 66.3677 501.507 69.4875C500.321 72.0091 498.399 74.1113 495.995 75.5164C493.59 76.9216 490.817 77.5636 488.041 77.3578C478.459 76.795 470.53 68.7254 467.843 56.7986C466.956 52.7612 466.72 48.6079 467.144 44.4959C461.789 45.2661 456.508 46.482 451.355 48.1309C421.038 57.6211 403.567 77.5776 399.416 107.442C397.638 121.607 398.619 135.982 402.304 149.773C402.356 149.943 402.368 150.123 402.338 150.299C402.308 150.475 402.237 150.641 402.131 150.784C402.025 150.927 401.887 151.043 401.729 151.124C401.57 151.204 401.394 151.246 401.216 151.246V151.239ZM469.464 44.2111C468.99 48.2447 469.192 52.3293 470.062 56.2962C472.521 67.2069 479.63 74.5806 488.174 75.0829C490.502 75.25 492.827 74.7084 494.843 73.5294C496.859 72.3503 498.472 70.5888 499.47 68.4759C500.771 65.7554 501.243 62.7119 500.829 59.7244C500.415 56.7369 499.132 53.9375 497.14 51.6747C491.819 45.4243 482.11 42.9 469.464 44.2111Z" fill="#292A2E"/>
<path d="M580.68 19.2332C579.148 19.23 577.647 18.793 576.352 17.9727C575.057 17.1523 574.02 15.982 573.361 14.5969C572.702 13.2118 572.448 11.6683 572.627 10.1446C572.807 8.62089 573.413 7.17903 574.376 5.98546C575.339 4.79188 576.619 3.89525 578.069 3.39903C579.519 2.90282 581.08 2.82725 582.571 3.18106C584.062 3.53487 585.423 4.30363 586.497 5.39861C587.57 6.49359 588.313 7.87015 588.638 9.36943C588.893 10.5579 588.879 11.7885 588.598 12.971C588.317 14.1535 587.775 15.258 587.012 16.2036C586.249 17.1493 585.284 17.9122 584.189 18.4364C583.093 18.9606 581.894 19.2328 580.68 19.2332ZM580.697 5.24005C579.487 5.24002 578.307 5.61579 577.319 6.31556C576.331 7.01534 575.584 8.00466 575.181 9.14719C574.779 10.2897 574.74 11.5292 575.07 12.6948C575.4 13.8604 576.084 14.8947 577.026 15.6553C577.968 16.4158 579.122 16.865 580.33 16.9411C581.538 17.0172 582.739 16.7164 583.769 16.08C584.799 15.4437 585.606 14.5033 586.08 13.3883C586.554 12.2734 586.67 11.0388 586.414 9.8547C586.136 8.54466 585.416 7.37041 584.375 6.52983C583.334 5.68925 582.035 5.23373 580.697 5.24005Z" fill="#292A2E"/>
<path d="M577.254 37.8251C575.169 37.825 573.163 37.0244 571.649 35.5882C570.136 34.152 569.23 32.1894 569.118 30.1046C569.006 28.0198 569.697 25.9713 571.048 24.3809C572.399 22.7905 574.307 21.7792 576.381 21.5552C578.454 21.3312 580.534 21.9115 582.193 23.1767C583.852 24.4419 584.963 26.2957 585.298 28.3565C585.633 30.4172 585.166 32.5281 583.993 34.2545C582.821 35.981 581.031 37.1916 578.994 37.6371C578.423 37.7621 577.839 37.8251 577.254 37.8251ZM577.283 23.8308C576.862 23.831 576.442 23.8764 576.031 23.9663C574.578 24.2859 573.302 25.1511 572.466 26.3837C571.631 27.6164 571.299 29.1229 571.539 30.5932C571.779 32.0635 572.572 33.3858 573.757 34.288C574.941 35.1903 576.425 35.6038 577.905 35.4436C579.384 35.2833 580.746 34.5615 581.71 33.4266C582.674 32.2917 583.167 30.8301 583.087 29.3424C583.007 27.8547 582.361 26.4542 581.282 25.429C580.202 24.4037 578.771 23.8318 577.283 23.8308Z" fill="#292A2E"/>
<path d="M589.474 22.5612C590.191 18.6703 586.055 14.6446 580.237 13.5697C574.418 12.4947 569.12 14.7775 568.403 18.6684C567.685 22.5593 571.821 26.5849 577.64 27.6599C583.458 28.7349 588.757 26.4521 589.474 22.5612Z" fill="white"/>
<path d="M580.505 29.0663C579.475 29.0646 578.446 28.9693 577.433 28.7815C574.572 28.3062 571.911 27.0053 569.777 25.0383C568.843 24.2405 568.125 23.2198 567.689 22.0705C567.253 20.9213 567.114 19.6806 567.284 18.4632C567.559 17.2653 568.132 16.1562 568.949 15.2384C569.765 14.3205 570.8 13.6235 571.957 13.2118C574.663 12.1883 577.598 11.9252 580.443 12.4509C583.288 12.9765 585.935 14.2709 588.099 16.194C589.033 16.9919 589.751 18.0126 590.187 19.1618C590.622 20.3111 590.762 21.5517 590.592 22.7691C590.316 23.967 589.744 25.0761 588.927 25.994C588.11 26.9118 587.076 27.6088 585.919 28.0206C584.203 28.7314 582.362 29.0871 580.505 29.0663ZM577.362 14.442C575.818 14.4224 574.285 14.7157 572.856 15.3044C572.047 15.5753 571.319 16.0439 570.737 16.6676C570.155 17.2914 569.737 18.0507 569.522 18.8767C569.428 19.7252 569.548 20.5836 569.869 21.3743C570.191 22.1649 570.704 22.8628 571.363 23.4048C573.203 25.013 575.442 26.0959 577.844 26.5398C580.247 26.9837 582.724 26.7724 585.016 25.928C585.825 25.657 586.553 25.1885 587.135 24.5647C587.718 23.9409 588.135 23.1817 588.35 22.3556C588.444 21.5071 588.325 20.6485 588.004 19.8577C587.682 19.067 587.168 18.3691 586.509 17.8276C584.698 16.1733 582.444 15.0835 580.024 14.6915C579.148 14.5281 578.258 14.4446 577.367 14.442H577.362Z" fill="#292A2E"/>
<path d="M577.624 13.3074L575.336 27.0523L578.712 27.8223L581.543 13.869L577.624 13.3074Z" fill="#292A2E"/>
<path d="M591.34 28.0946C591.951 28.0946 592.446 27.5989 592.446 26.9874C592.446 26.3759 591.951 25.8801 591.34 25.8801C590.73 25.8801 590.234 26.3759 590.234 26.9874C590.234 27.5989 590.73 28.0946 591.34 28.0946Z" fill="#292A2E"/>
<path d="M593.268 22.4262C593.879 22.4262 594.374 21.9305 594.374 21.319C594.374 20.7075 593.879 20.2117 593.268 20.2117C592.657 20.2117 592.162 20.7075 592.162 21.319C592.162 21.9305 592.657 22.4262 593.268 22.4262Z" fill="#292A2E"/>
</svg>
