<svg width="70" height="46" viewBox="0 0 70 46" fill="none" xmlns="http://www.w3.org/2000/svg">
<path fill-rule="evenodd" clip-rule="evenodd" d="M70.0001 23C70.0001 22.3369 69.7367 21.7011 69.2678 21.2322C68.799 20.7634 68.1631 20.5 67.5001 20.5H8.53507L24.2701 4.76998C24.5025 4.53754 24.6869 4.2616 24.8127 3.9579C24.9385 3.65421 25.0032 3.3287 25.0032 2.99998C25.0032 2.67126 24.9385 2.34576 24.8127 2.04207C24.6869 1.73837 24.5025 1.46242 24.2701 1.22998C24.0376 0.997544 23.7617 0.813163 23.458 0.687368C23.1543 0.561572 22.8288 0.496826 22.5001 0.496826C22.1714 0.496826 21.8459 0.561572 21.5422 0.687368C21.2385 0.813163 20.9625 0.997544 20.7301 1.22998L0.730074 21.23C0.497258 21.4622 0.312544 21.7381 0.186512 22.0418C0.0604794 22.3455 -0.00439453 22.6711 -0.00439453 23C-0.00439453 23.3288 0.0604794 23.6544 0.186512 23.9581C0.312544 24.2619 0.497258 24.5378 0.730074 24.77L20.7301 44.77C20.9625 45.0024 21.2385 45.1868 21.5422 45.3126C21.8459 45.4384 22.1714 45.5031 22.5001 45.5031C22.8288 45.5031 23.1543 45.4384 23.458 45.3126C23.7617 45.1868 24.0376 45.0024 24.2701 44.77C24.5025 44.5375 24.6869 44.2616 24.8127 43.9579C24.9385 43.6542 25.0032 43.3287 25.0032 43C25.0032 42.6713 24.9385 42.3458 24.8127 42.0421C24.6869 41.7384 24.5025 41.4624 24.2701 41.23L8.53507 25.5H67.5001C68.1631 25.5 68.799 25.2366 69.2678 24.7678C69.7367 24.2989 70.0001 23.663 70.0001 23Z" fill="#0C4A6E"/>
</svg>
